<?xml version="1.0" encoding="UTF-8"?>
<svg id="Capa_1" data-name="Capa 1" xmlns="http://www.w3.org/2000/svg" viewBox="0 0 3000 1000">
  <defs>
    <style>
      .cls-1 {
        fill: #fff;
      }
    </style>
  </defs>
  <path class="cls-1" d="M627.782,348.656h58.622l125.29,187.744v-187.744h61.304v298.858h-58.239l-125.673-188.127v188.127h-61.304v-298.858Z"/>
  <path class="cls-1" d="M902.489,540.232c0-62.454,47.894-111.88,114.945-111.88,67.435,0,114.563,49.426,114.563,111.88,0,62.836-47.511,111.112-114.563,111.112-63.986,0-114.945-45.976-114.945-111.112ZM1074.907,540.232c0-32.951-25.671-59.389-57.473-59.389s-57.472,26.438-57.472,59.389,25.671,58.621,57.472,58.621c31.418,0,57.473-26.053,57.473-58.621Z"/>
  <path class="cls-1" d="M1147.698,540.232c0-62.454,47.894-111.88,114.945-111.88,67.435,0,114.563,49.426,114.563,111.88,0,62.836-47.511,111.112-114.563,111.112-63.986,0-114.945-45.976-114.945-111.112ZM1320.116,540.232c0-32.951-25.671-59.389-57.473-59.389s-57.472,26.438-57.472,59.389,25.671,58.621,57.472,58.621c31.418,0,57.473-26.053,57.473-58.621Z"/>
  <path class="cls-1" d="M1379.118,432.183h62.071l40.614,152.877,40.997-152.877h61.687l-64.369,215.33h-77.779l-63.22-215.33Z"/>
  <path class="cls-1" d="M1584.481,540.615c0-62.454,44.829-112.263,112.646-112.263,68.966,0,115.328,52.108,108.815,128.738h-162.839c6.131,31.417,31.801,44.445,56.323,44.445,21.457,0,38.699-9.578,47.894-26.053l52.491,15.708c-16.092,37.549-54.79,60.154-101.534,60.154-66.668,0-113.796-47.127-113.796-110.729ZM1750.002,517.625c-5.748-22.222-26.055-39.464-52.492-39.464-26.054,0-47.128,16.475-53.641,39.464h106.133Z"/>
  <path class="cls-1" d="M1831.991,348.656h59.388v298.858h-59.388v-298.858Z"/>
  <path class="cls-1" d="M1927.774,348.656h59.388v298.858h-59.388v-298.858Z"/>
  <path class="cls-1" d="M2013.213,540.615c0-62.454,44.829-112.263,112.646-112.263,68.966,0,115.328,52.108,108.815,128.738h-162.839c6.131,31.417,31.801,44.445,56.323,44.445,21.457,0,38.699-9.578,47.894-26.053l52.491,15.708c-16.092,37.549-54.79,60.154-101.534,60.154-66.668,0-113.796-47.127-113.796-110.729ZM2178.734,517.625c-5.748-22.222-26.055-39.464-52.492-39.464-26.054,0-47.128,16.475-53.641,39.464h106.133Z"/>
  <path class="cls-1" d="M2260.722,432.183h49.043l3.831,27.587,1.916.383c11.111-22.988,29.886-27.969,52.491-27.969h4.215v59.389h-12.644c-23.755,0-39.847,14.942-39.847,49.426v106.516h-59.005v-215.33Z"/>
</svg>